<svg id="visual" viewBox="0 0 900 600" width="900" height="600" xmlns="http://www.w3.org/2000/svg" xmlns:xlink="http://www.w3.org/1999/xlink" version="1.1"><path d="M0 79L18.8 76C37.7 73 75.3 67 112.8 70C150.3 73 187.7 85 225.2 85C262.7 85 300.3 73 337.8 67C375.3 61 412.7 61 450.2 64C487.7 67 525.3 73 562.8 78C600.3 83 637.7 87 675.2 87C712.7 87 750.3 83 787.8 84C825.3 85 862.7 91 881.3 94L900 97L900 0L881.3 0C862.7 0 825.3 0 787.8 0C750.3 0 712.7 0 675.2 0C637.7 0 600.3 0 562.8 0C525.3 0 487.7 0 450.2 0C412.7 0 375.3 0 337.8 0C300.3 0 262.7 0 225.2 0C187.7 0 150.3 0 112.8 0C75.3 0 37.7 0 18.8 0L0 0Z" fill="#f4e4b3"></path><path d="M0 199L18.8 203C37.7 207 75.3 215 112.8 222C150.3 229 187.7 235 225.2 239C262.7 243 300.3 245 337.8 238C375.3 231 412.7 215 450.2 215C487.7 215 525.3 231 562.8 231C600.3 231 637.7 215 675.2 220C712.7 225 750.3 251 787.8 256C825.3 261 862.7 245 881.3 237L900 229L900 95L881.3 92C862.7 89 825.3 83 787.8 82C750.3 81 712.7 85 675.2 85C637.7 85 600.3 81 562.8 76C525.3 71 487.7 65 450.2 62C412.7 59 375.3 59 337.8 65C300.3 71 262.7 83 225.2 83C187.7 83 150.3 71 112.8 68C75.3 65 37.7 71 18.8 74L0 77Z" fill="#e9c58a"></path><path d="M0 427L18.8 422C37.7 417 75.3 407 112.8 404C150.3 401 187.7 405 225.2 411C262.7 417 300.3 425 337.8 431C375.3 437 412.7 441 450.2 438C487.7 435 525.3 425 562.8 415C600.3 405 637.7 395 675.2 401C712.7 407 750.3 429 787.8 433C825.3 437 862.7 423 881.3 416L900 409L900 227L881.3 235C862.7 243 825.3 259 787.8 254C750.3 249 712.7 223 675.2 218C637.7 213 600.3 229 562.8 229C525.3 229 487.7 213 450.2 213C412.7 213 375.3 229 337.8 236C300.3 243 262.7 241 225.2 237C187.7 233 150.3 227 112.8 220C75.3 213 37.7 205 18.8 201L0 197Z" fill="#e0a466"></path><path d="M0 529L18.8 526C37.7 523 75.3 517 112.8 514C150.3 511 187.7 511 225.2 512C262.7 513 300.3 515 337.8 520C375.3 525 412.7 533 450.2 538C487.7 543 525.3 545 562.8 540C600.3 535 637.7 523 675.2 519C712.7 515 750.3 519 787.8 524C825.3 529 862.7 535 881.3 538L900 541L900 407L881.3 414C862.7 421 825.3 435 787.8 431C750.3 427 712.7 405 675.2 399C637.7 393 600.3 403 562.8 413C525.3 423 487.7 433 450.2 436C412.7 439 375.3 435 337.8 429C300.3 423 262.7 415 225.2 409C187.7 403 150.3 399 112.8 402C75.3 405 37.7 415 18.8 420L0 425Z" fill="#d7824a"></path><path d="M0 601L18.8 601C37.7 601 75.3 601 112.8 601C150.3 601 187.7 601 225.2 601C262.7 601 300.3 601 337.8 601C375.3 601 412.7 601 450.2 601C487.7 601 525.3 601 562.8 601C600.3 601 637.7 601 675.2 601C712.7 601 750.3 601 787.8 601C825.3 601 862.7 601 881.3 601L900 601L900 539L881.3 536C862.7 533 825.3 527 787.8 522C750.3 517 712.7 513 675.2 517C637.7 521 600.3 533 562.8 538C525.3 543 487.7 541 450.2 536C412.7 531 375.3 523 337.8 518C300.3 513 262.7 511 225.2 510C187.7 509 150.3 509 112.8 512C75.3 515 37.7 521 18.8 524L0 527Z" fill="#ce5c36"></path></svg>