<svg id="visual" viewBox="0 0 1920 1080" width="1920" height="1080" xmlns="http://www.w3.org/2000/svg" xmlns:xlink="http://www.w3.org/1999/xlink" version="1.1"><path d="M0 298L40 303C80 308 160 318 240 313.2C320 308.3 400 288.7 480 270C560 251.3 640 233.7 720 244.3C800 255 880 294 960 312C1040 330 1120 327 1200 308C1280 289 1360 254 1440 235.8C1520 217.7 1600 216.3 1680 214.7C1760 213 1840 211 1880 210L1920 209L1920 0L1880 0C1840 0 1760 0 1680 0C1600 0 1520 0 1440 0C1360 0 1280 0 1200 0C1120 0 1040 0 960 0C880 0 800 0 720 0C640 0 560 0 480 0C400 0 320 0 240 0C160 0 80 0 40 0L0 0Z" fill="#f2dfad" stroke-linecap="round" stroke-linejoin="miter"></path></svg>